<?xml version="1.0"?>
<svg xmlns="http://www.w3.org/2000/svg" height="512px" viewBox="0 -23 479.77536 479" width="512px"><g><path d="m319.828125 360.386719c0-4.417969-3.582031-8-8-8-20.003906-.003907-38.480469-10.675781-48.480469-28-1.421875-2.457031-4.039062-3.980469-6.882812-4h-33.277344c-2.839844.019531-5.460938 1.542969-6.882812 4-10 17.324219-28.476563 27.996093-48.476563 28-4.417969 0-8 3.582031-8 8v32c0 13.257812-10.746094 24-24 24-13.257813 0-24-10.742188-24-24v-32c0-4.417969-3.582031-8-8-8s-8 3.582031-8 8v32c0 22.09375 17.90625 40 40 40 22.089844 0 40-17.90625 40-40v-24.476563c21.046875-2.382812 39.980469-13.910156 51.757813-31.523437h24.480468c13.339844 19.964843 35.75 31.964843 59.761719 32 4.417969 0 8-3.578125 8-8zm0 0" data-original="#000000" class="active-path" data-old_color="#f20548" fill="#f20548"/><path d="m311.828125 224.386719h-64v-8c0-13.253907 10.742187-24 24-24h40c22.089844 0 40-17.90625 40-40v-24l9.597656 12.800781c1.511719 2.015625 3.882813 3.199219 6.402344 3.199219 1.730469 0 3.414063-.558594 4.796875-1.597657 3.535156-2.652343 4.253906-7.664062 1.601562-11.199218l-24-32c-1.519531-1.777344-3.742187-2.800782-6.078124-2.800782-2.339844 0-4.5625 1.023438-6.082032 2.800782l-24 32c-2.652344 3.535156-1.933594 8.546875 1.601563 11.199218 3.535156 2.648438 8.546875 1.933594 11.199219-1.601562l8.960937-12.800781v24c0 13.257812-10.746094 24-24 24h-40c-22.09375 0-40 17.910156-40 40v8h-64c-39.765625 0-72 32.238281-72 72v32c0 4.421875 3.582031 8 8 8s8-3.578125 8-8v-32c0-30.925781 25.070313-56 56-56h32v32c0 4.421875 3.582031 8 8 8h64c4.417969 0 8-3.578125 8-8v-8c0-4.417969-3.582031-8-8-8s-8 3.582031-8 8h-48v-24h96c30.925781 0 56 25.074219 56 56v96c0 13.257812-10.746094 24-24 24-13.257813 0-24-10.742188-24-24 0-4.417969-3.582031-8-8-8s-8 3.582031-8 8c0 22.09375 17.90625 40 40 40 22.089844 0 40-17.90625 40-40v-96c0-39.761719-32.238281-72-72-72zm0 0" data-original="#000000" class="active-path" data-old_color="#f20548" fill="#f20548"/><path d="m167.828125 264.386719c-4.417969 0-8 3.582031-8 8v16h-16c-4.417969 0-8 3.582031-8 8 0 4.421875 3.582031 8 8 8h16v16c0 4.421875 3.582031 8 8 8s8-3.578125 8-8v-16h16c4.417969 0 8-3.578125 8-8 0-4.417969-3.582031-8-8-8h-16v-16c0-4.417969-3.582031-8-8-8zm0 0" data-original="#000000" class="active-path" data-old_color="#f20548" fill="#f20548"/><path d="m319.828125 272.386719c0 4.421875-3.582031 8-8 8s-8-3.578125-8-8c0-4.417969 3.582031-8 8-8s8 3.582031 8 8zm0 0" data-original="#000000" class="active-path" data-old_color="#f20548" fill="#f20548"/><path d="m303.828125 296.386719c0 4.421875-3.582031 8-8 8s-8-3.578125-8-8c0-4.417969 3.582031-8 8-8s8 3.582031 8 8zm0 0" data-original="#000000" class="active-path" data-old_color="#f20548" fill="#f20548"/><path d="m343.828125 288.386719c0 4.421875-3.582031 8-8 8s-8-3.578125-8-8c0-4.417969 3.582031-8 8-8s8 3.582031 8 8zm0 0" data-original="#000000" class="active-path" data-old_color="#f20548" fill="#f20548"/><path d="m327.828125 312.386719c0 4.421875-3.582031 8-8 8s-8-3.578125-8-8c0-4.417969 3.582031-8 8-8s8 3.582031 8 8zm0 0" data-original="#000000" class="active-path" data-old_color="#f20548" fill="#f20548"/><path d="m207.828125 120.386719v-48c0-4.417969-3.582031-8-8-8s-8 3.582031-8 8v40h-16c-3.109375-.003907-5.9375 1.789062-7.257813 4.601562-1.320312 2.8125-.890624 6.132813 1.097657 8.519531l40 48c1.519531 1.835938 3.777343 2.894532 6.160156 2.894532 2.378906 0 4.636719-1.058594 6.160156-2.894532l40-48c1.984375-2.386718 2.414063-5.707031 1.09375-8.519531-1.320312-2.8125-4.148437-4.605469-7.253906-4.601562h-16v-24c0-4.417969-3.582031-8-8-8s-8 3.582031-8 8v32c0 4.421875 3.582031 8 8 8h6.957031l-22.957031 27.523437-22.960937-27.523437h6.960937c4.417969 0 8-3.578125 8-8zm0 0" data-original="#000000" class="active-path" data-old_color="#f20548" fill="#f20548"/><path d="m119.828125 192.386719v-40c0-4.417969-3.582031-8-8-8s-8 3.582031-8 8v40c0 4.421875 3.582031 8 8 8s8-3.578125 8-8zm0 0" data-original="#000000" class="active-path" data-old_color="#f20548" fill="#f20548"/><path d="m295.828125 88.386719v-32c0-4.417969-3.582031-8-8-8s-8 3.582031-8 8v32c0 4.421875 3.582031 8 8 8s8-3.578125 8-8zm0 0" data-original="#000000" class="active-path" data-old_color="#f20548" fill="#f20548"/><path d="m411.027344 114.546875c-17.566406-66.988281-77.949219-113.816406-147.199219-114.160156-60.09375-.191407-114.59375 35.238281-138.800781 90.242187-6.96875-1.496094-14.074219-2.246094-21.199219-2.242187-50.589844.085937-93.78125 36.5625-102.332031 86.421875-8.550782 49.863281 20.019531 98.644531 67.691406 115.578125.875.117187 1.761719.117187 2.640625 0 3.367187 0 6.375-2.109375 7.519531-5.277344.714844-2.003906.605469-4.214844-.3125-6.136719-.914062-1.921875-2.558594-3.398437-4.570312-4.105468-39.699219-14.75-63.257813-55.6875-56.070313-97.421876 7.1875-41.738281 43.085938-72.433593 85.433594-73.058593 8.117187-.003907 16.195313 1.128906 24 3.363281 3.980469 1.148438 8.183594-.933594 9.679687-4.800781 20.132813-52.21875 70.355469-86.632813 126.320313-86.5625 63.742187.3125 118.820313 44.609375 132.796875 106.800781.714844 3.207031 3.316406 5.648438 6.5625 6.160156 34.304688 5.539063 59.757812 34.792969 60.503906 69.535156.746094 34.742188-23.429687 65.058594-57.464844 72.066407-4.417968.882812-7.285156 5.179687-6.398437 9.597656.882813 4.417969 5.179687 7.285156 9.597656 6.402344 40.648438-8.324219 69.960938-43.90625 70.347657-85.394531.382812-41.488282-28.261719-77.609376-68.746094-86.6875zm0 0" data-original="#000000" class="active-path" data-old_color="#f20548" fill="#f20548"/></g> </svg>
