<?xml version="1.0"?>
<svg xmlns="http://www.w3.org/2000/svg" height="512px" viewBox="-43 0 511 511.99995" width="512px"><g><path d="m421.851562 97.339844c-3.1875-2.835938-7.824218-3.339844-11.546874-1.25l-93.679688 52.652344c-2.777344 1.5625-4.644531 4.355468-5.027344 7.519531-.382812 3.164062.765625 6.320312 3.09375 8.496093l22.050782 20.648438c-14.539063 56.101562-18.703126 108.023438-21.664063 164.222656h-22.484375l-4.804688-10.242187c-1.644531-3.515625-5.175781-5.757813-9.054687-5.757813h-21.339844l-7.105469-100.933594c-.261718-3.746093-2.574218-6.882812-5.789062-8.371093l2.230469-109.851563 12.503906 4.851563c3.855469 1.492187 8.230469.464843 11.011719-2.589844 2.78125-3.058594 3.398437-7.507813 1.550781-11.203125l-50-100c-2.46875-4.941406-8.476563-6.941406-13.417969-4.472656-4.9375 2.46875-6.941406 8.476562-4.472656 13.414062l38.421875 76.839844-1.6875-.652344c-3.042969-1.183594-6.46875-.804687-9.179687 1.011719-2.714844 1.820313-4.367188 4.84375-4.433594 8.105469l-2.515625 123.621094h-23.320313l-2.515625-123.621094c-.066406-3.261719-1.71875-6.289063-4.429687-8.105469-2.714844-1.8125-6.140625-2.191406-9.183594-1.011719l-1.6875.652344 7.121094-14.246094c2.472656-4.9375.46875-10.945312-4.472656-13.414062-4.9375-2.472656-10.945313-.46875-13.414063 4.472656l-18.703125 37.40625c-1.847656 3.695312-1.234375 8.144531 1.550781 11.203125 2.78125 3.054687 7.15625 4.082031 11.007813 2.589844l12.503906-4.851563 2.234375 109.851563c-3.214844 1.488281-5.527344 4.625-5.789063 8.371093l-7.105468 100.933594h-21.34375c-3.878906 0-7.40625 2.242188-9.050782 5.757813l-4.804687 10.242187h-22.484375c-2.960938-56.191406-7.128906-108.121094-21.664062-164.222656l22.050781-20.648438c2.324219-2.175781 3.476562-5.332031 3.09375-8.496093-.382813-3.164063-2.25-5.957031-5.027344-7.519531l-93.679687-52.652344c-3.722657-2.089844-8.359376-1.585938-11.546876 1.25-3.1875 2.839844-4.222656 7.386718-2.578124 11.328125 34.027343 81.394531 53.101562 168.898437 61.84375 283.71875.394531 5.214843 4.742187 9.242187 9.96875 9.242187h35.648437l-.820313 1.757813c-1.453124 3.097656-1.222656 6.722656.613282 9.605469 1.835937 2.886718 5.019531 4.636718 8.4375 4.636718h53.78125l9.503906 47.160156c.675781 3.351563 2.980469 6.019532 5.992188 7.261719l.609374 30.152344c.113282 5.441406 4.554688 9.796875 10 9.796875h32c5.445313 0 9.886719-4.355469 9.996094-9.796875l.613282-30.152344c3.007812-1.242187 5.316406-3.910156 5.992187-7.261719l9.503906-47.160156h53.777344c3.421875 0 6.605469-1.75 8.441406-4.636718 1.832031-2.886719 2.066407-6.511719.613281-9.609376l-.824218-1.753906h35.652344c5.226562 0 9.570312-4.027344 9.96875-9.242187 8.742187-114.820313 27.816406-202.324219 61.84375-283.722657 1.644531-3.9375.609374-8.484374-2.578126-11.324218zm-244.222656 256.289062c5.25 0 9.605469-4.058594 9.976563-9.296875l7.105469-100.933593h8.140624v122.230468h-55.152343l5.625-12zm-95.300781 28c-8.234375-100.457031-24.589844-180.484375-52.164063-254.296875l57.214844 32.15625-16.445312 15.402344c-2.699219 2.527344-3.785156 6.34375-2.820313 9.914063 16.15625 59.695312 19.863281 112.5 23.027344 175.328124.269531 5.320313 4.660156 9.496094 9.988281 9.496094h22.609375l-5.625 12zm96.601563 16h-46.230469l5.625-12h64.527343v67.1875h-4.613281l-9.503906-47.160156c-.941406-4.667969-5.042969-8.027344-9.804687-8.027344zm27.71875 94.371094-.386719-19.1875h13.179687l-.386718 19.1875zm40.125-94.371094c-4.761719 0-8.863282 3.359375-9.804688 8.023438l-9.503906 47.160156h-4.613282v-209.414062h8.140626l7.105468 100.933593c.371094 5.238281 4.726563 9.296875 9.976563 9.296875h24.304687l5.925782 12.648438c-3.789063 1.421875-6.488282 5.066406-6.488282 9.351562 0 5.523438 4.476563 10 10 10h5.5625l5.625 12zm96.601562-16h-35.785156l-5.625-12h22.609375c5.328125 0 9.71875-4.175781 9.988281-9.496094 3.164062-62.828124 6.871094-115.632812 23.023438-175.328124.96875-3.570313-.117188-7.382813-2.816407-9.910157l-16.449219-15.402343 57.214844-32.160157c-27.570312 73.8125-43.925781 153.839844-52.160156 254.296875zm0 0" data-original="#000000" class="active-path" data-old_color="#000000" fill="#F20548"/><path d="m190.386719 54.933594c1.433593.71875 2.960937 1.058594 4.460937 1.058594 3.667969 0 7.203125-2.027344 8.953125-5.53125l.121094-.242188c2.46875-4.9375.46875-10.945312-4.472656-13.414062-4.941407-2.472657-10.945313-.46875-13.414063 4.472656l-.121094.242187c-2.472656 4.9375-.46875 10.945313 4.472657 13.414063zm0 0" data-original="#000000" class="active-path" data-old_color="#000000" fill="#F20548"/><path d="m253.085938 365.628906h-.269532c-5.523437 0-10 4.480469-10 10 0 5.523438 4.476563 10 10 10h.269532c5.523437 0 10-4.476562 10-10 0-5.519531-4.476563-10-10-10zm0 0" data-original="#000000" class="active-path" data-old_color="#000000" fill="#F20548"/></g> </svg>
